<?xml version="1.0" encoding="UTF-8" standalone="no"?>
<svg width="21px" height="21px" viewBox="0 0 21 21" version="1.1" xmlns="http://www.w3.org/2000/svg" xmlns:xlink="http://www.w3.org/1999/xlink">
    <!-- Generator: Sketch 3.6.1 (26313) - http://www.bohemiancoding.com/sketch -->
    <title>github-logo</title>
    <desc>Created with Sketch.</desc>
    <defs></defs>
    <g id="Page-1" stroke="none" stroke-width="1" fill="none" fill-rule="evenodd">
        <g id="Group" fill="#FFFFFF">
            <path d="M10.3088864,0.112184874 C4.64695804,0.112184874 0.0557142857,4.70257969 0.0557142857,10.365357 C0.0557142857,14.895477 2.99356018,18.7388036 7.06745917,20.0945627 C7.57988008,20.1894743 7.76800544,19.8721401 7.76800544,19.6013278 C7.76800544,19.3568328 7.7584973,18.5491501 7.75408281,17.6923987 C4.9016404,18.3126351 4.2997411,16.4826575 4.2997411,16.4826575 C3.8333328,15.2975356 3.16131096,14.9824086 3.16131096,14.9824086 C2.2310412,14.3460423 3.2314335,14.359116 3.2314335,14.359116 C4.26102938,14.4314458 4.80316322,15.4157082 4.80316322,15.4157082 C5.71764268,16.9831932 7.20176167,16.5300284 7.78685194,16.2680451 C7.87887716,15.6053616 8.14459576,15.1530458 8.43782004,14.8970051 C6.1604504,14.6377385 3.76643624,13.758575 3.76643624,9.82984492 C3.76643624,8.71043106 4.16696669,7.79578182 4.82285866,7.07774736 C4.71640143,6.81949945 4.36544914,5.77666009 4.92218478,4.36436152 C4.92218478,4.36436152 5.78318094,4.08879521 7.74253721,5.41535072 C8.56040715,5.18817405 9.43753319,5.07424614 10.3088864,5.07034102 C11.1802397,5.07424614 12.0580449,5.18817405 12.8774429,5.41535072 C14.8344221,4.08879521 15.6942298,4.36436152 15.6942298,4.36436152 C16.2523237,5.77666009 15.9012016,6.81949945 15.7947444,7.07774736 C16.4521645,7.79578182 16.8499783,8.71043106 16.8499783,9.82984492 C16.8499783,13.7679133 14.4513799,14.6350219 12.1682374,14.8888553 C12.5359988,15.2070384 12.8636901,15.8310102 12.8636901,16.7875971 C12.8636901,18.1594861 12.8518049,19.263619 12.8518049,19.6013278 C12.8518049,19.8741775 13.0363647,20.1938888 13.5560865,20.0932044 C17.6277782,18.7359172 20.5618888,14.8939489 20.5618888,10.365357 C20.5618888,4.70257969 15.9713242,0.112184874 10.3088864,0.112184874" id="Fill-4"></path>
        </g>
    </g>
</svg>