<?xml version="1.0" encoding="UTF-8" standalone="no"?>
<svg width="28px" height="20px" viewBox="0 0 28 20" version="1.1" xmlns="http://www.w3.org/2000/svg" xmlns:xlink="http://www.w3.org/1999/xlink">
    <!-- Generator: Sketch 3.6.1 (26313) - http://www.bohemiancoding.com/sketch -->
    <title>mail-icon</title>
    <desc>Created with Sketch.</desc>
    <defs></defs>
    <g id="Page-1" stroke="none" stroke-width="1" fill="none" fill-rule="evenodd">
        <g id="noun_15467" fill="#FFFFFF">
            <path d="M24.9413478,-6.5674977e-07 L2.15542452,-6.5674977e-07 C1.56206676,-0.000303687044 1.01889962,0.240605397 0.632462677,0.622423568 C0.244486146,1.00272659 -0.000308570026,1.53727203 -6.5214423e-07,2.1212114 L-6.5214423e-07,17.8787867 C-0.000308570026,18.4627261 0.244486146,18.9972715 0.632462677,19.3775745 C1.01889962,19.7593927 1.56206676,20.0003018 2.15542452,19.9999988 L24.9413478,19.9999988 C25.5347055,20.0003018 26.0778727,19.7593927 26.4643096,19.3775745 C26.8522862,18.9972715 27.0970809,18.4624231 27.096773,17.8787867 L27.096773,2.1212114 C27.0970809,1.53727203 26.8522862,1.00272659 26.4643096,0.622423568 C26.0778727,0.240605397 25.5347055,-0.000303687044 24.9413478,-6.5674977e-07 Z M25.806451,17.2361284 L18.1419348,10.1612897 L25.806451,3.08645097 L25.806451,17.2361284 L25.806451,17.2361284 Z M1.61290259,1.29032194 L25.4838703,1.29032194 C25.5719348,1.29064452 25.6480639,1.32419291 25.7109671,1.38580581 C25.7170961,1.39193485 25.7190316,1.3993542 25.7245155,1.40580581 L15.09258,11.2199994 C14.7612897,11.5274187 14.2980639,11.6935477 13.826451,11.6932252 C13.3719348,11.6935477 12.9267736,11.5393542 12.5996768,11.2512897 L1.3777413,1.3977413 C1.3809671,1.39387033 1.38225743,1.38967678 1.38548323,1.38580581 C1.44870904,1.32419291 1.52483807,1.29064452 1.61290259,1.29032194 L1.61290259,1.29032194 Z M1.29032194,17.2845155 L1.29032194,3.0377413 L9.40290259,10.1612897 L1.29032194,17.2845155 L1.29032194,17.2845155 Z M1.62290259,18.7096768 L10.3806445,11.0199994 L11.7483865,12.2209671 C12.3374187,12.7374187 13.086451,12.9832252 13.8261284,12.9835477 C14.5932252,12.9832252 15.3693542,12.718709 15.9674187,12.1683865 L17.1906445,11.0393542 L25.4970961,18.7070961 C25.49258,18.7070961 25.4890316,18.7096768 25.4838703,18.7096768 L1.62290259,18.7096768 L1.62290259,18.7096768 Z" id="Shape"></path>
        </g>
    </g>
</svg>