<?xml version="1.0" encoding="UTF-8" standalone="no"?>
<svg width="63px" height="33px" viewBox="0 0 63 33" version="1.1" xmlns="http://www.w3.org/2000/svg" xmlns:xlink="http://www.w3.org/1999/xlink" xmlns:sketch="http://www.bohemiancoding.com/sketch/ns">
    <!-- Generator: Sketch 3.5.2 (25235) - http://www.bohemiancoding.com/sketch -->
    <title>sa-logo</title>
    <desc>Created with Sketch.</desc>
    <defs>
        <path id="path-1" d="M3.14697264,32.5710749 C4.02491475,31.6816346 3.69879625,26.922939 3.00956131,21.6232967 C2.02063751,14.0192968 1.9639894,14.7570337 1.9639894,14.7570337 C0.484818898,6.60694903 6.00540581,0 14.2764107,0 L50.7235893,0 C59.0027223,0 64.6446876,6.62858202 63.3916608,14.8196943 C63.3916608,14.8196943 60.58053,30.8428976 61.6564926,32.0077183 C62.1456692,32.5372934 63.2388726,33.8416127 63.5252147,35.626512 C63.8115568,37.4114112 63.2015555,39.8859306 61.6564915,40.8654828 C58.8213239,40.8775999 6.06428361,40.8570535 3.00956124,40.8654828 C0.899837417,38.3690121 1.00934707,34.7366965 3.14697264,32.5710749 Z"></path>
        <filter x="-50%" y="-50%" width="200%" height="200%" filterUnits="objectBoundingBox" id="filter-3">
            <feOffset dx="-2" dy="2" in="SourceAlpha" result="shadowOffsetOuter1"></feOffset>
            <feGaussianBlur stdDeviation="2" in="shadowOffsetOuter1" result="shadowBlurOuter1"></feGaussianBlur>
            <feColorMatrix values="0 0 0 0 0   0 0 0 0 0   0 0 0 0 0  0 0 0 0.241397758 0" in="shadowBlurOuter1" type="matrix" result="shadowMatrixOuter1"></feColorMatrix>
            <feMerge>
                <feMergeNode in="shadowMatrixOuter1"></feMergeNode>
                <feMergeNode in="SourceGraphic"></feMergeNode>
            </feMerge>
        </filter>
    </defs>
    <g id="Page-1" stroke="none" stroke-width="1" fill="none" fill-rule="evenodd" sketch:type="MSPage">
        <g id="new-logo" sketch:type="MSLayerGroup" transform="translate(-1.000000, -8.000000)">
            <mask id="mask-2" sketch:name="Mask" fill="white">
                <use xlink:href="#path-1"></use>
            </mask>
            <use id="Mask" stroke="#979797" opacity="0" sketch:type="MSShapeGroup" xlink:href="#path-1"></use>
            <path d="M33.378572,9.92890087 L56.1065856,32.8164093 C58.1987956,34.9233015 58.2006257,38.3374058 56.1065856,40.4461409 L33.378572,63.3336494 C31.286362,65.4405416 27.8960493,65.4423845 25.8020093,63.3336494 L3.22174407,40.9682795 C1.12953405,38.8613873 0.979955561,34.9251444 3.07399564,32.8164093 L25.8020093,9.92890087 C27.8942193,7.82200868 31.2845319,7.82016578 33.378572,9.92890087 Z" id="Rectangle-7" fill="#565656" sketch:type="MSShapeGroup" mask="url(#mask-2)"></path>
            <path d="M34.935526,13.1656517 C37.027686,11.0588099 40.4190142,11.0580714 42.5119075,13.1656517 L61.8735284,32.6631437 C63.9656884,34.7699855 63.9664218,38.1851125 61.8735284,40.2926928 L42.5119075,59.7901848 C40.4197475,61.8970266 37.0284193,61.8977651 34.935526,59.7901848 L15.573905,40.2926928 C13.4817451,38.185851 13.4810117,34.770724 15.573905,32.6631437 L34.935526,13.1656517 L34.935526,13.1656517 Z" id="Rectangle-7" fill="#E9E9E9" filter="url(#filter-3)" sketch:type="MSShapeGroup" mask="url(#mask-2)"></path>
            <path d="M16.137567,32.2578601 C9.69924452,38.2224439 6.83126494,43.0425908 1,37.5557756 C1.65876983,39.2579871 1.17491725,38.5181235 1.65876983,39.2579871 C2.42219748,40.4253516 3.95452556,41.9060561 4.13282233,41.9056283 C7.7802413,41.8968778 18.9702248,41.9056285 18.9702248,41.9056285 C18.9702248,41.9056285 21.6372929,26.591629 16.137567,32.2578601 Z" id="Path-3" fill="#E9E9E9" sketch:type="MSShapeGroup" mask="url(#mask-2)"></path>
        </g>
    </g>
</svg>