<?xml version="1.0" encoding="UTF-8" standalone="no"?>
<svg width="54px" height="30px" viewBox="0 0 54 30" version="1.1" xmlns="http://www.w3.org/2000/svg" xmlns:xlink="http://www.w3.org/1999/xlink" xmlns:sketch="http://www.bohemiancoding.com/sketch/ns">
    <!-- Generator: Sketch 3.5.2 (25235) - http://www.bohemiancoding.com/sketch -->
    <title>sa-logo</title>
    <desc>Created with Sketch.</desc>
    <defs>
        <path id="path-1" d="M2.61440804,27.0101597 C3.34377533,26.272575 3.07284612,22.3263396 2.50025094,17.9315143 C1.67868347,11.6257583 2.04038314,14.7611547 2.04038314,14.7611547 C0.585781234,6.60879406 6.11840712,0 14.4137366,0 L39.5862634,0 C47.8744797,0 53.5277919,6.62208085 52.2973111,14.8155662 C52.2973111,14.8155662 50.3284403,25.5770371 51.2223169,26.5429859 C51.6287098,26.9821457 52.5369096,28.0637764 52.7747938,29.5439367 C53.012678,31.0240971 52.5059077,33.0761376 51.222316,33.8884492 C48.866946,33.8984975 5.03802023,33.881459 2.50025088,33.8884492 C0.747557238,31.8182052 0.838534487,28.806041 2.61440804,27.0101597 Z"></path>
    </defs>
    <g id="Page-1" stroke="none" stroke-width="1" fill="none" fill-rule="evenodd" sketch:type="MSPage">
        <g id="new-logo" sketch:type="MSLayerGroup" transform="translate(0.000000, -5.000000)">
            <mask id="mask-2" sketch:name="Mask" fill="white">
                <use xlink:href="#path-1"></use>
            </mask>
            <use id="Mask" stroke="#979797" opacity="0" sketch:type="MSShapeGroup" xlink:href="#path-1"></use>
            <path d="M27.7298906,8.23372267 L46.611625,27.2136077 C48.3497687,28.9607866 48.351289,31.7919951 46.611625,33.5407022 L27.7298906,52.5205873 C25.9917469,54.2677662 23.1751795,54.2692944 21.4355154,52.5205873 L2.67652585,33.9736952 C0.938382137,32.2265163 0.814116928,28.9623149 2.55378099,27.2136077 L21.4355154,8.23372267 C23.1736591,6.48654378 25.9902265,6.48501552 27.7298906,8.23372267 Z" id="Rectangle-7" fill="#515355" sketch:type="MSShapeGroup" mask="url(#mask-2)"></path>
            <path d="M29.0233601,10.9178575 C30.7614622,9.17072043 33.5788733,9.17010803 35.3175847,10.9178575 L51.4026236,27.0865094 C53.1407258,28.8336465 53.141335,31.6657031 51.4026236,33.4134526 L35.3175847,49.5821045 C33.5794825,51.3292416 30.7620714,51.329854 29.0233601,49.5821045 L12.9383211,33.4134526 C11.200219,31.6663155 11.1996097,28.8342589 12.9383211,27.0865094 L29.0233601,10.9178575 L29.0233601,10.9178575 Z" id="Rectangle-7" fill="#ECEBEB" sketch:type="MSShapeGroup" mask="url(#mask-2)"></path>
            <path d="M13.4065941,26.7504206 C8.05783391,31.6966608 5.67520472,35.6938558 0.830769231,31.1438139 C1.37805493,32.5554039 0.976085099,31.9418585 1.37805494,32.5554039 C2.01228713,33.5234623 3.28529816,34.7513636 3.43342163,34.7510088 C6.46358508,34.7437524 15.7598791,34.751009 15.7598791,34.751009 C15.7598791,34.751009 17.9755972,22.0515948 13.4065941,26.7504206 Z" id="Path-3" fill="#EBEAEA" sketch:type="MSShapeGroup" mask="url(#mask-2)"></path>
        </g>
    </g>
</svg>