<?xml version="1.0" encoding="UTF-8" standalone="no"?>
<svg width="24px" height="21px" viewBox="0 0 24 21" version="1.1" xmlns="http://www.w3.org/2000/svg" xmlns:xlink="http://www.w3.org/1999/xlink">
    <!-- Generator: Sketch 3.6.1 (26313) - http://www.bohemiancoding.com/sketch -->
    <title>twitter-logo</title>
    <desc>Created with Sketch.</desc>
    <defs></defs>
    <g id="Page-1" stroke="none" stroke-width="1" fill="none" fill-rule="evenodd">
        <g id="noun_20940" fill="#FFFFFF">
            <path d="M23.2733459,2.48763667 C23.4507788,1.88751187 23.2478433,1.23855232 22.7562402,0.847874332 C22.4773395,0.624862313 22.1398371,0.512542391 21.7974513,0.512542391 C21.5272323,0.512542391 21.2570134,0.583081473 21.0144675,0.727957894 C20.5326313,1.01065683 20.0285482,1.2374671 19.5022181,1.39753656 C18.4962223,0.628117963 17.2487657,0.2 15.9665823,0.2 C13.0278156,0.2 10.5931321,2.39213761 10.209508,5.22672346 C7.86652531,4.72535337 5.73190419,3.43448818 4.19415221,1.54838167 C3.90114372,1.18700453 3.46163098,0.98081337 3.00258435,0.98081337 C2.96405915,0.98081337 2.92336353,0.983526411 2.8821253,0.986239453 C2.37858478,1.02584986 1.92876248,1.30963401 1.67427918,1.74480588 C1.15771606,2.62980005 0.885869296,3.63905152 0.885869296,4.66729428 C0.885869296,5.36183293 1.00904138,6.03738029 1.23693688,6.66843376 C0.991677918,6.94733444 0.849514539,7.30871158 0.849514539,7.69070783 C0.849514539,9.21435199 1.42467936,10.6153667 2.38292565,11.6680268 C2.32378134,11.9306492 2.33300568,12.2084647 2.4192804,12.4743428 C2.75081409,13.5128951 3.35745019,14.406571 4.14206181,15.0886296 C3.6325526,15.2042052 3.10513732,15.2633495 2.57012552,15.2633495 C2.29285266,15.2633495 2.01232416,15.2454434 1.72962523,15.2134296 C1.66993832,15.205833 1.6102514,15.2020348 1.54947927,15.2020348 C0.905945804,15.2020348 0.32318447,15.6046502 0.104513318,16.2248515 C-0.138032601,16.8976858 0.118621134,17.6502835 0.719831151,18.0371632 C2.92878961,19.4517431 5.48121914,20.2 8.10038949,20.2 C16.5949227,20.2 21.6997818,13.3631352 21.7914826,6.68959549 C22.4827656,6.10086546 23.0904869,5.42314767 23.6059648,4.66675168 C23.8007612,4.40955533 23.9163368,4.08995903 23.9163368,3.73997667 C23.9163368,3.22504137 23.6623961,2.76816517 23.2733459,2.48763667 L23.2733459,2.48763667 Z M20.2412506,5.95219078 C20.2510176,6.13504978 20.2548158,6.31953661 20.2548158,6.50456605 C20.2548158,12.149863 15.9579006,18.6589924 8.10038949,18.6589924 C5.68849552,18.6589924 3.44263969,17.9519737 1.55110709,16.7397868 C1.88372599,16.7766841 2.22556923,16.8000163 2.57012552,16.8000163 C4.5718076,16.8000163 6.41342023,16.1163298 7.87629226,14.9697984 C6.00483617,14.9366993 4.42855901,13.700095 3.88432286,12.0033587 C4.14531746,12.0532787 4.41336597,12.0809517 4.68629796,12.0809517 C5.07697595,12.0809517 5.45463134,12.0277761 5.81221022,11.9306492 C3.85773505,11.536173 2.38455347,9.81176375 2.38455347,7.74008519 L2.38455347,7.68690957 C2.9608035,8.00596327 3.62007261,8.19804661 4.32003734,8.21975094 C3.17404857,7.453588 2.42090823,6.14481673 2.42090823,4.66349603 C2.42090823,3.88105483 2.63144026,3.14799099 2.9993287,2.51693752 C5.10464897,5.10138094 8.25340504,6.8013728 11.8042339,6.97934833 C11.7304391,6.66789115 11.694627,6.34015573 11.694627,6.0053664 C11.694627,3.64827586 13.6067787,1.73558154 15.9649545,1.73558154 C17.1945049,1.73558154 18.3052241,2.25431509 19.0844097,3.08287799 C20.0562212,2.89242247 20.9716014,2.53701403 21.7969087,2.04703872 C21.4773124,3.0438102 20.7995946,3.88105483 19.9189413,4.40955533 C20.7822311,4.30754497 21.6042827,4.07802165 22.3715309,3.73672102 C21.8001643,4.59784042 21.0768674,5.34989555 20.2412506,5.95219078 L20.2412506,5.95219078 Z" id="Shape"></path>
        </g>
    </g>
</svg>